<?xml version="1.0" encoding="utf-8"?>
<!-- Designed by Vexels.com - 2020 All Rights Reserved - https://vexels.com/terms-and-conditions/  -->
<svg version="1.1" id="Layer_1" xmlns="http://www.w3.org/2000/svg" xmlns:xlink="http://www.w3.org/1999/xlink" x="0px" y="0px"
	 viewBox="0 0 1200 1200" enable-background="new 0 0 1200 1200" xml:space="preserve">
<g>
	<path fill="#004F84" d="M1095.397,50H104.603C74.492,50,50,74.498,50,104.609v990.788c0,30.111,24.492,54.603,54.603,54.603
		h990.795c30.111,0,54.603-24.492,54.603-54.603V104.609C1150,74.498,1125.508,50,1095.397,50z M1102.164,1095.397
		c0,3.73-3.036,6.767-6.767,6.767H104.603c-3.73,0-6.767-3.036-6.767-6.767V104.609c0-3.737,3.036-6.774,6.767-6.774h990.795
		c3.73,0,6.767,3.036,6.767,6.774V1095.397z"/>
	<path fill="#004F84" d="M1016.568,156.754c-15.009,0-27.176,12.167-27.176,27.177c0,15.009,12.167,27.177,27.176,27.177
		c15.01,0,27.178-12.167,27.178-27.177C1043.746,168.922,1031.579,156.754,1016.568,156.754z"/>
	<path fill="#004F84" d="M188.912,211.108c15.009,0,27.176-12.167,27.176-27.177c0-15.01-12.167-27.177-27.176-27.177
		c-15.009,0-27.178,12.167-27.178,27.177C161.734,198.94,173.904,211.108,188.912,211.108z"/>
	<path fill="#004F84" d="M380.725,578.428c48.343,0,87.676-39.334,87.676-87.676s-39.334-87.676-87.676-87.676
		c-48.35,0-87.683,39.334-87.683,87.676S332.376,578.428,380.725,578.428z M380.725,450.911c21.969,0,39.841,17.872,39.841,39.841
		c0,21.969-17.872,39.841-39.841,39.841c-21.969,0-39.847-17.872-39.847-39.841C340.878,468.782,358.756,450.911,380.725,450.911z"
		/>
	<path fill="#004F84" d="M921.806,271.22c-2.533,0-5.013,0.214-7.504,0.38c-1.268-0.211-2.546-0.397-3.874-0.4l-517.463-1.295
		c-0.02,0-0.04,0-0.06,0c-0.797,0-1.552,0.158-2.331,0.234c-3.071-0.126-6.146-0.234-9.248-0.234
		c-123.173,0-223.375,100.203-223.375,223.375c0,123.166,100.203,223.369,223.375,223.369c27.929,0,54.653-5.198,79.32-14.602
		c0.184-0.073,0.374-0.095,0.556-0.173l1.443-0.616c4.199-1.648,8.34-3.409,12.411-5.3l496.442-211.974
		c3.235-1.38,5.966-3.418,8.197-5.851c32.163-19.615,53.753-54.924,53.753-95.272C1033.447,321.305,983.363,271.22,921.806,271.22z
		 M863.702,478.001l-286.355,122.27c17.421-31.793,27.348-68.252,27.348-106.991c0-70.977-33.312-134.278-85.079-175.223
		l310.877,0.778c-12.763,18.148-20.327,40.203-20.327,64.025C810.165,423.119,831.659,458.36,863.702,478.001z M381.326,317.741
		c96.792,0,175.533,78.747,175.533,175.54c0,69.954-41.139,130.458-100.486,158.645l-12.256,5.234
		c-19.512,7.501-40.67,11.655-62.791,11.655c-96.792,0-175.54-78.741-175.54-175.533S284.534,317.741,381.326,317.741z
		 M921.806,446.66c-35.183,0-63.805-28.623-63.805-63.799c0-35.183,28.623-63.805,63.805-63.805s63.805,28.623,63.805,63.805
		C985.612,418.037,956.989,446.66,921.806,446.66z"/>
	<path fill="#004F84" d="M809.691,821.871H238.573c-13.207,0-23.918,10.711-23.918,23.918c0,13.207,10.711,23.918,23.918,23.918
		h571.118c13.207,0,23.918-10.711,23.918-23.918C833.609,832.582,822.898,821.871,809.691,821.871z"/>
	<path fill="#004F84" d="M958.297,801.51c-13.207,0-23.918,10.711-23.918,23.918v144.581c0,13.207,10.711,23.918,23.918,23.918
		s23.918-10.711,23.918-23.918V825.428C982.215,812.221,971.504,801.51,958.297,801.51z"/>
	<path fill="#004F84" d="M809.691,942.674H238.573c-13.207,0-23.918,10.711-23.918,23.918s10.711,23.918,23.918,23.918h571.118
		c13.207,0,23.918-10.711,23.918-23.918S822.898,942.674,809.691,942.674z"/>
</g>
</svg>
